<?xml version="1.0" encoding="UTF-8" standalone="no"?>
<svg
   xmlns:dc="http://purl.org/dc/elements/1.1/"
   xmlns:cc="http://creativecommons.org/ns#"
   xmlns:rdf="http://www.w3.org/1999/02/22-rdf-syntax-ns#"
   xmlns:svg="http://www.w3.org/2000/svg"
   xmlns="http://www.w3.org/2000/svg"
   xmlns:sodipodi="http://sodipodi.sourceforge.net/DTD/sodipodi-0.dtd"
   xmlns:inkscape="http://www.inkscape.org/namespaces/inkscape"
   inkscape:version="1.0 (1.0+r72)"
   sodipodi:docname="hamburger-white-32x32.svg"
   xml:space="preserve"
   width="32px"
   viewBox="0 0 32 32"
   version="1.1"
   style="enable-background:new 0 0 32 32;"
   id="Layer_1"
   height="32px"><metadata
     id="metadata9"><rdf:RDF><cc:Work
         rdf:about=""><dc:format>image/svg+xml</dc:format><dc:type
           rdf:resource="http://purl.org/dc/dcmitype/StillImage" /><dc:title></dc:title></cc:Work></rdf:RDF></metadata><defs
     id="defs7" /><sodipodi:namedview
     inkscape:current-layer="Layer_1"
     inkscape:window-maximized="1"
     inkscape:window-y="27"
     inkscape:window-x="0"
     inkscape:cy="15.953623"
     inkscape:cx="16"
     inkscape:zoom="21.5625"
     showgrid="false"
     id="namedview5"
     inkscape:window-height="836"
     inkscape:window-width="1600"
     inkscape:pageshadow="2"
     inkscape:pageopacity="0"
     guidetolerance="10"
     gridtolerance="10"
     objecttolerance="10"
     borderopacity="1"
     bordercolor="#666666"
     pagecolor="#ffffff" /><path
     id="path2"
     d="M4,10h24c1.104,0,2-0.896,2-2s-0.896-2-2-2H4C2.896,6,2,6.896,2,8S2.896,10,4,10z M28,14H4c-1.104,0-2,0.896-2,2  s0.896,2,2,2h24c1.104,0,2-0.896,2-2S29.104,14,28,14z M28,22H4c-1.104,0-2,0.896-2,2s0.896,2,2,2h24c1.104,0,2-0.896,2-2  S29.104,22,28,22z" /><path
     id="path834"
     d="M 3.4208441,9.880957 C 2.870899,9.7051536 2.4819443,9.3614769 2.2117006,8.8125694 2.0724478,8.5297251 2.0637681,8.4820489 2.0637681,8 c 0,-0.4820489 0.00868,-0.5297251 0.1479325,-0.8125694 C 2.4853988,6.6315066 2.8738754,6.2918338 3.4361023,6.1168492 3.7101775,6.0315474 4.0765065,6.0289855 16,6.0289855 c 11.923494,0 12.289823,0.00256 12.563898,0.087864 0.560475,0.1744394 0.950784,0.514822 1.221986,1.0656745 0.182228,0.370134 0.229468,0.949169 0.110752,1.3575369 C 29.719759,9.1484954 29.18658,9.6910267 28.58199,9.8777653 28.282679,9.9702133 28.174436,9.9709931 15.98352,9.9685205 4.1886609,9.9661282 3.676099,9.9625556 3.4208441,9.880957 Z"
     style="fill:#ffffff;stroke-width:0.0463768" /><path
     id="path836"
     d="M 3.6723937,17.942359 C 2.9801881,17.827198 2.3668123,17.29597 2.1364364,16.61211 1.7678458,15.517966 2.461301,14.316213 3.6005303,14.074847 c 0.2737592,-0.058 2.0063887,-0.06755 12.3793577,-0.06824 8.531162,-5.69e-4 12.141585,0.01403 12.336232,0.0499 0.959827,0.176847 1.6433,0.985178 1.6433,1.943501 0,0.971593 -0.702047,1.787608 -1.673559,1.945239 -0.372977,0.06052 -24.2491969,0.05772 -24.6134673,-0.0029 z"
     style="fill:#ffffff;stroke-width:0.0463768" /><path
     id="path838"
     d="M 3.4208441,25.880957 C 2.870899,25.705154 2.4819443,25.361477 2.2117006,24.812569 2.0724478,24.529725 2.0637681,24.482049 2.0637681,24 c 0,-0.482049 0.00868,-0.529725 0.1479325,-0.812569 0.2736982,-0.555924 0.6621748,-0.895597 1.2244017,-1.070582 0.2740752,-0.0853 0.6404042,-0.08786 12.5638977,-0.08786 11.923494,0 12.289823,0.0026 12.563898,0.08786 0.560475,0.17444 0.950784,0.514822 1.221986,1.065675 0.182228,0.370134 0.229468,0.949169 0.110752,1.357537 -0.176877,0.608434 -0.710056,1.150966 -1.314646,1.337704 -0.299311,0.09245 -0.407554,0.09323 -12.59847,0.09076 -11.7948591,-0.0024 -12.307421,-0.006 -12.5626759,-0.08756 z"
     style="fill:#ffffff;stroke-width:0.0463768" /></svg>
